<?xml version="1.0" encoding="UTF-8"?>
<svg width="408px" height="427px" viewBox="0 0 408 427" version="1.1" xmlns="http://www.w3.org/2000/svg" xmlns:xlink="http://www.w3.org/1999/xlink">
    <title>AE430AEF-D966-4AC8-ACFF-DC26552A32A4</title>
    <defs>
        <rect id="path-1" x="0" y="0" width="408" height="407"></rect>
        <path d="M1.99431176,11.2888152 L35.3949752,11.2888152 C37.444606,11.2888152 39.10616,12.9503692 39.10616,15 C39.10616,17.0496308 37.444606,18.7111848 35.3949752,18.7111848 L1.99431176,18.7111848 C-0.0553190267,18.7111848 -1.71687307,17.0496308 -1.71687307,15 C-1.71687307,12.9503692 -0.0553190267,11.2888152 1.99431176,11.2888152 Z" id="path-3"></path>
    </defs>
    <g id="SiteLock" stroke="none" stroke-width="1" fill="none" fill-rule="evenodd">
        <g id="Sitelock-Page" transform="translate(-440.000000, -1090.000000)">
            <g id="Group-9" transform="translate(440.000000, 1090.000000)">
                <rect id="Rectangle" fill="#2E93EE" x="27" y="318" width="29" height="102"></rect>
                <g id="Atoms/Illustrations/Without-Snappy/.a-illustration__store--notext" transform="translate(0.000000, 13.000000)">
                    <mask id="mask-2" fill="white">
                        <use xlink:href="#path-1"></use>
                    </mask>
                    <g id="Mask"></g>
                    <g mask="url(#mask-2)" id=".a-illustration__store--notext">
                        <g transform="translate(26.500000, 229.500000)">
                            <polygon id="Rectangle-Copy-65" fill="#FF9144" transform="translate(174.375000, 78.560861) rotate(-90.000000) translate(-174.375000, -78.560861) " points="165.360861 -95.8141393 229.114139 -95.8141393 228.910861 252.935861 151.410861 252.935861 119.635861 218.835861 174.96066 205.187902 185.510861 -67.1391393"></polygon>
                            <polygon id="Rectangle-Copy-68" fill="#2E93EE" transform="translate(227.075000, 204.212500) rotate(-270.000000) translate(-227.075000, -204.212500) " points="122.0625 82.5375 332.01127 82.5375 332.0875 325.8875"></polygon>
                            <g id="Screen-Shot-2020-03-04-at-12.45.16-PM" transform="translate(28.586066, 66.878689)">
                                <polygon id="Mask" fill="#FFFFFF" points="0 0.546311475 291.577869 0.546311475 291.577869 213.671311 170.563525 213.671311 0 213.671311"></polygon>
                                <polygon id="Path-18" fill="#1F2044" points="266.688934 39.2963115 249.638934 54.0213115 249.638934 39.2963115"></polygon>
                                <polygon id="Path-18-Copy-2" fill="#FFCF00" points="232.588934 39.2963115 215.538934 54.0213115 215.538934 39.2963115"></polygon>
                                <polygon id="Path-18-Copy" fill="#FF9144" transform="translate(234.138934, 46.271311) scale(-1, 1) rotate(-90.000000) translate(-234.138934, -46.271311) " points="241.888934 37.7463115 226.388934 54.7963115 226.388934 37.7463115"></polygon>
                                <polygon id="Path-18-Copy-3" fill="#2E93EE" transform="translate(267.463934, 46.271311) scale(-1, 1) rotate(-90.000000) translate(-267.463934, -46.271311) " points="275.213934 37.7463115 259.713934 54.7963115 259.713934 37.7463115"></polygon>
                                <path d="M48.1389344,105.171311 L91.5389344,105.171311 L91.5389344,124.546311 L67.5139344,124.546311 C56.8134174,124.546311 48.1389344,115.871829 48.1389344,105.171311 L48.1389344,105.171311 L48.1389344,105.171311 Z" id="Rectangle-Copy-56" fill="#FFCF00"></path>
                                <path d="M110.138934,105.171311 L153.538934,105.171311 L153.538934,124.546311 L129.513934,124.546311 C118.813417,124.546311 110.138934,115.871829 110.138934,105.171311 L110.138934,105.171311 L110.138934,105.171311 Z" id="Rectangle-Copy-58" fill="#FFCF00"></path>
                                <path d="M172.138934,105.171311 L215.538934,105.171311 L215.538934,124.546311 L191.513934,124.546311 C180.813417,124.546311 172.138934,115.871829 172.138934,105.171311 L172.138934,105.171311 L172.138934,105.171311 Z" id="Rectangle-Copy-59" fill="#FFCF00"></path>
                                <path d="M233.363934,105.171311 L276.763934,105.171311 L276.763934,124.546311 L252.738934,124.546311 C242.038417,124.546311 233.363934,115.871829 233.363934,105.171311 L233.363934,105.171311 L233.363934,105.171311 Z" id="Rectangle-Copy-60" fill="#FFCF00"></path>
                                <rect id="Rectangle-Copy-97" fill="#FFCF00" x="0.0889344262" y="0.546311475" width="32.55" height="213.125"></rect>
                                <g id="Group-5-Copy-2" transform="translate(48.138934, 70.296311)">
                                    <rect id="Rectangle-Copy-74" fill="#2E93EE" x="0" y="0" width="43.4" height="34.875"></rect>
                                    <polygon id="Rectangle-Copy-74" fill="#1F2044" points="0 0 43.4 0 0 34.875"></polygon>
                                </g>
                                <g id="Group-4-Copy-3" transform="translate(110.138934, 70.296311)">
                                    <rect id="Rectangle-Copy-77" fill="#1F2044" x="0" y="0" width="43.4" height="34.875"></rect>
                                    <polygon id="Rectangle-Copy-78" fill="#2E93EE" points="0 0 43.4 0 0 34.875"></polygon>
                                </g>
                                <g id="Group-2-Copy-4" transform="translate(172.138934, 70.296311)">
                                    <rect id="Rectangle-Copy-95" fill="#2E93EE" x="0" y="0" width="43.4" height="34.875"></rect>
                                    <polygon id="Rectangle-Copy-96" fill="#1F2044" points="0 0 43.4 0 0 34.875"></polygon>
                                </g>
                                <g id="Group-2-Copy-5" transform="translate(233.363934, 70.296311)">
                                    <rect id="Rectangle-Copy-95" fill="#1F2044" x="0" y="0" width="43.4" height="34.875"></rect>
                                    <polygon id="Rectangle-Copy-96" fill="#2E93EE" points="0 0 43.4 0 0 34.875"></polygon>
                                </g>
                                <g id="Group" transform="translate(10.850000, 10.075000)" fill="#1F2044">
                                    <rect id="Rectangle" x="-8.45279402e-13" y="8.37" width="11.16" height="1.86"></rect>
                                    <rect id="Rectangle-Copy-3" x="-8.45279402e-13" y="4.185" width="11.16" height="1.86"></rect>
                                    <rect id="Rectangle-Copy-4" x="-8.45279402e-13" y="-8.45795656e-13" width="11.16" height="1.86"></rect>
                                </g>
                            </g>
                            <path d="M320.163934,0 L320.163934,47.6434426 L28.5860656,47.6434426 L28.5860656,0 L320.163934,0 Z M314.73835,5.425 L34.010875,5.425 L34.010875,42.218125 L314.73835,42.218125 L314.73835,5.425 Z" id="Path-12" fill="#1F2044"></path>
                            <rect id="Rectangle" fill="#1F2044" x="51.454918" y="21.7381148" width="13.3401639" height="5.425"></rect>
                            <rect id="Rectangle" fill="#1F2044" x="77.182377" y="21.7381148" width="22.8688525" height="5.425"></rect>
                            <rect id="Rectangle" fill="#1F2044" x="262.725" y="4.65" width="5.425" height="38.75"></rect>
                            <rect id="Rectangle" fill="#CDD8DF" x="77.5" y="105.4" width="75.175" height="15.5"></rect>
                        </g>
                    </g>
                </g>
                <rect id="Rectangle" fill="#CDD8DF" x="5" y="420" width="399" height="7"></rect>
                <g id="Group-2" transform="translate(309.105742, 92.143823) rotate(17.000000) translate(-309.105742, -92.143823) translate(261.809749, 56.176551)" fill="#FF9144">
                    <path d="M47.6583758,9.934545 C64.6079947,9.934545 78.3804681,23.5375222 78.6542226,40.4219033 L78.6583758,40.934545 L78.6583758,71.934545 L72.4583758,71.934545 L72.4583758,66.509545 C72.4583758,63.5134002 70.0295205,61.084545 67.0333758,61.084545 C64.1103077,61.084545 61.727194,63.3963644 61.6126834,66.2913543 L61.6083758,66.509545 L61.6083758,71.934545 L53.8583758,71.934545 L53.8583758,66.509545 C53.8583758,63.5134002 51.4295205,61.084545 48.4333758,61.084545 C45.5103077,61.084545 43.127194,63.3963644 43.0126834,66.2913543 L43.0083758,66.509545 L43.0083758,71.934545 L35.2583758,71.934545 L35.2583758,66.509545 C35.2583758,63.5134002 32.8295205,61.084545 29.8333758,61.084545 C26.9103077,61.084545 24.527194,63.3963644 24.4126834,66.2913543 L24.4083758,66.509545 L24.4083758,71.934545 L16.6583758,71.934545 L16.6583758,40.934545 L16.6625289,40.4219033 C16.9362834,23.5375222 30.7087568,9.934545 47.6583758,9.934545 Z M52.899911,28.3245912 C53.9197807,33.8387666 55.7586198,37.5995165 58.4164283,39.606841 C61.0742368,41.6141656 64.7269248,40.5265316 69.3744923,36.343939 L69.3744923,36.343939 Z M44.7072217,28.5874176 L27.9628051,36.0269255 C32.461571,40.369168 36.074076,41.5836164 38.80032,39.6702709 C41.5265641,37.7569253 43.4955313,34.0626409 44.7072217,28.5874176 Z" id="Combined-Shape"></path>
                    <path d="M68.5919866,23.142871 C80.5626932,21.757462 89.1269107,14.721353 94.2846392,2.03454382 C96.1612063,17.5638978 89.4444757,28.5638978 74.1344474,35.0345438 L68.5919866,23.142871 Z" id="Path-2"></path>
                    <path d="M0,21.1083272 C11.9707065,19.7229182 20.5349241,12.6868091 25.6926526,-4.54747351e-13 C27.5692196,15.529354 20.852489,26.529354 5.5424608,33 L0,21.1083272 Z" id="Path-2-Copy-2" transform="translate(13.000000, 16.500000) scale(-1, 1) translate(-13.000000, -16.500000) "></path>
                </g>
                <g id="Group-7" transform="translate(144.000000, 29.000000)">
                    <path d="M32,9 C44.7025492,9 55,19.2711146 55,31.9411765 C55,38.5271243 52.2176688,44.4648859 47.7614794,48.6488233 C47.8044255,48.940397 47.8309198,49.2356883 47.8404466,49.5338474 L47.8444444,49.7843137 L47.8444444,61 L42.7333333,61 L42.7333333,58.9712418 C42.7333333,56.7130109 40.9026754,54.8823529 38.6444444,54.8823529 C36.4546447,54.8823529 34.6668971,56.6037429 34.5605596,58.767165 L34.5555556,58.9712418 L34.5555556,61 L28.4222222,61 L28.4222222,58.9712418 C28.4222222,56.7130109 26.5915643,54.8823529 24.3333333,54.8823529 C22.1435336,54.8823529 20.355786,56.6037429 20.2494485,58.767165 L20.2444444,58.9712418 L20.2444444,61 L15.1333333,61 L15.1333333,49.7843137 L15.1373312,49.5338474 C15.1561148,48.9459777 15.2408592,48.3692564 15.3866907,47.8070256 C11.4310393,43.687148 9,38.097336 9,31.9411765 C9,19.2711146 19.2974508,9 32,9 Z M23.54231,27.5163944 C19.9524591,27.5163944 17.04231,30.4265435 17.04231,34.0163944 C17.04231,37.6062452 19.9524591,40.5163944 23.54231,40.5163944 C27.1321609,40.5163944 30.04231,37.6062452 30.04231,34.0163944 C30.04231,30.4265435 27.1321609,27.5163944 23.54231,27.5163944 Z M40.8049863,27.5139901 C37.2151355,27.5139901 34.3049863,30.4241393 34.3049863,34.0139901 C34.3049863,37.603841 37.2151355,40.5139901 40.8049863,40.5139901 C44.3948372,40.5139901 47.3049863,37.603841 47.3049863,34.0139901 C47.3049863,30.4241393 44.3948372,27.5139901 40.8049863,27.5139901 Z" id="Combined-Shape" fill="#191936" transform="translate(32.000000, 35.000000) rotate(-10.000000) translate(-32.000000, -35.000000) "></path>
                    <rect id="Rectangle" fill="#F26A23" x="29" y="22" width="6" height="22"></rect>
                    <path d="M14,1.28587914e-15 L14,6 L6,5.999 L6,14 L3.63797881e-12,14 L3.63797881e-12,6.82121026e-13 L14,1.28587914e-15 Z" id="Combined-Shape" fill="#F26A23"></path>
                    <path d="M65,1.28587914e-15 L65,6 L57,5.999 L57,14 L51,14 L51,6.82121026e-13 L65,1.28587914e-15 Z" id="Combined-Shape-Copy-3" fill="#F26A23" transform="translate(58.000000, 7.000000) scale(-1, 1) translate(-58.000000, -7.000000) "></path>
                    <path d="M14,51 L14,57 L6,56.999 L6,65 L0,65 L0,51 L14,51 Z" id="Combined-Shape-Copy-2" fill="#F26A23" transform="translate(7.000000, 58.000000) rotate(-90.000000) translate(-7.000000, -58.000000) "></path>
                    <path d="M65,51 L65,57 L57,56.999 L57,65 L51,65 L51,51 L65,51 Z" id="Combined-Shape-Copy-4" fill="#F26A23" transform="translate(58.000000, 58.000000) scale(-1, 1) rotate(-90.000000) translate(-58.000000, -58.000000) "></path>
                    <rect id="Rectangle" fill="#F26A23" transform="translate(32.000000, 33.000000) rotate(-270.000000) translate(-32.000000, -33.000000) " x="29" y="22" width="6" height="22"></rect>
                </g>
                <g id="Group-3" transform="translate(221.137665, 186.829088) rotate(-8.000000) translate(-221.137665, -186.829088) translate(138.942960, 123.474729)">
                    <polygon id="Rectangle-Copy-4" fill="#FFCF00" transform="translate(79.642470, 59.456740) rotate(36.000000) translate(-79.642470, -59.456740) " points="42.4682052 54.4567401 116.816735 54.4567401 116.816735 64.4567401 42.4682052 64.4567401"></polygon>
                    <g id="Rectangle-Copy-6-+-Rectangle-Copy-6-Mask" transform="translate(0.000000, -0.000000)">
                        <mask id="mask-4" fill="white">
                            <use xlink:href="#path-3"></use>
                        </mask>
                        <use id="Mask" fill="#FF9144" transform="translate(18.694643, 15.000000) rotate(36.000000) translate(-18.694643, -15.000000) " xlink:href="#path-3"></use>
                    </g>
                    <path d="M153.447078,89.69806 L123.876306,70.2569582 C120.779546,68.2210144 116.620367,69.0635022 114.560014,72.1440762 C112.450467,75.2982034 113.087844,79.5396171 116.031253,81.9344132 L143.008334,103.883318 L143.008334,103.883318 L153.447078,89.69806 Z" id="Path-4-Copy" fill="#2E93EE"></path>
                    <path d="M140.760935,108.11169 L111.190164,88.6705885 C108.093404,86.6346448 103.934224,87.4771326 101.873871,90.5577065 C99.7643244,93.7118337 100.401701,97.9532474 103.34511,100.348044 L130.322191,122.296948 L130.322191,122.296948 L140.760935,108.11169 Z" id="Path-4-Copy-2" fill="#1F2044"></path>
                    <path d="M92.2549813,80.5220976 L162.748869,77.9586834 L162.748869,77.9586834 L162.748869,107.698095 L92.2549813,105.134681 C90.1038313,105.056458 88.4003398,103.289895 88.4003398,101.137323 L88.4003398,84.5194555 C88.4003398,82.3668837 90.1038313,80.6003212 92.2549813,80.5220976 Z" id="Rectangle" fill="#2E93EE" transform="translate(125.574605, 92.828389) rotate(36.000000) translate(-125.574605, -92.828389) "></path>
                    <circle id="Oval-Copy-2" fill="#FF9144" transform="translate(49.567858, 37.606256) rotate(36.000000) translate(-49.567858, -37.606256) " cx="49.567858" cy="37.6062555" r="12.8420187"></circle>
                    <circle id="Oval-Copy-2" fill="#FFFFFF" transform="translate(48.793547, 32.717448) rotate(36.000000) translate(-48.793547, -32.717448) " cx="48.7935469" cy="32.7174477" r="4.5"></circle>
                    <ellipse id="Oval-Copy-3" fill="#FF9144" transform="translate(66.792408, 50.120624) rotate(36.000000) translate(-66.792408, -50.120624) " cx="66.7924085" cy="50.120624" rx="4.3933222" ry="12.8420187"></ellipse>
                    <ellipse id="Oval-Copy-4" fill="#FF9144" transform="translate(76.088198, 56.874410) rotate(36.000000) translate(-76.088198, -56.874410) " cx="76.0881976" cy="56.8744102" rx="4.3933222" ry="12.8420187"></ellipse>
                    <ellipse id="Oval-Copy-5" fill="#FF9144" transform="translate(85.383987, 63.628196) rotate(36.000000) translate(-85.383987, -63.628196) " cx="85.3839868" cy="63.6281963" rx="4.3933222" ry="12.8420187"></ellipse>
                    <ellipse id="Oval-Copy-8" fill="#FFCF00" transform="translate(89.066713, 66.165425) rotate(36.000000) translate(-89.066713, -66.165425) " cx="89.0667128" cy="66.1654248" rx="2" ry="5"></ellipse>
                    <ellipse id="Oval-Copy-9" fill="#FFCF00" transform="translate(79.008803, 58.692912) rotate(36.000000) translate(-79.008803, -58.692912) " cx="79.0088027" cy="58.6929123" rx="2" ry="5"></ellipse>
                    <ellipse id="Oval-Copy-10" fill="#FFCF00" transform="translate(69.801988, 52.349841) rotate(36.000000) translate(-69.801988, -52.349841) " cx="69.8019875" cy="52.349841" rx="2" ry="5"></ellipse>
                    <path d="M140.867995,92.9793231 L111.297224,73.5382213 C108.200464,71.5022775 104.041284,72.3447653 101.980932,75.4253393 C99.8713847,78.5794665 100.508762,82.8208802 103.452171,85.2156763 L130.429251,107.164581 L130.429251,107.164581 L140.867995,92.9793231 Z" id="Path-4" fill="#1F2044"></path>
                    <path d="M136.76775,93.4128988 L107.196979,73.9717969 C104.100219,71.9358532 99.941039,72.778341 97.8806861,75.858915 C95.7711394,79.0130422 96.4085162,83.2544559 99.3519254,85.649252 L126.329006,107.598156 L126.329006,107.598156 L136.76775,93.4128988 Z" id="Path-4-Copy-3" fill="#2E93EE"></path>
                </g>
                <g id="Group-8" transform="translate(102.840404, 217.368432) scale(-1, 1) translate(-102.840404, -217.368432) translate(62.171659, 172.736865)" fill="#1F2044">
                    <g id="Group-3-Copy" transform="translate(40.040725, 36.439984) rotate(21.000000) translate(-40.040725, -36.439984) translate(7.311822, 9.970926)">
                        <polygon id="Rectangle-Copy-4" transform="translate(23.675368, 19.667309) rotate(36.000000) translate(-23.675368, -19.667309) " points="5.3275272 17.1625043 42.0139032 17.2316891 42.0232087 22.1721143 5.33683268 22.1029295"></polygon>
                        <path d="M60.0434544,34.6282528 L45.4763649,25.0131866 C43.9496661,24.0054829 41.8955833,24.4215701 40.8813974,25.9439705 C39.8408691,27.5059135 40.1558236,29.6025638 41.6093365,30.7898572 L54.8996408,41.6459637 L54.8996408,41.6459637 L60.0434544,34.6282528 Z" id="Path-4-Copy"></path>
                        <path d="M53.7922088,43.7378184 L39.2251192,34.1227521 C37.6984204,33.1150484 35.6443376,33.5311356 34.6301517,35.053536 C33.5896235,36.615479 33.9045779,38.7121294 35.3580908,39.8994227 L48.6483951,50.7555292 L48.6483951,50.7555292 L53.7922088,43.7378184 Z" id="Path-4-Copy-2"></path>
                        <path d="M29.848083,30.0597561 L64.6177441,28.8593432 L64.6177441,28.8593432 L64.6454181,43.5518773 L29.8560982,42.2197448 C28.7948789,42.1791092 27.954946,41.3080419 27.9529457,40.2460468 L27.9374915,32.0411795 C27.9354803,30.9734094 28.7809468,30.0965987 29.848083,30.0597561 Z" id="Rectangle" transform="translate(46.289651, 36.205610) rotate(36.000000) translate(-46.289651, -36.205610) "></path>
                        <ellipse id="Oval-Copy-2" transform="translate(8.855750, 8.857468) rotate(36.000000) translate(-8.855750, -8.857468) " cx="8.85575003" cy="8.85746804" rx="6.33674919" ry="6.34451483"></ellipse>
                        <ellipse id="Oval-Copy-3" transform="translate(17.343349, 15.048559) rotate(36.000000) translate(-17.343349, -15.048559) " cx="17.3433494" cy="15.0485589" rx="2.16786496" ry="6.34450468"></ellipse>
                        <ellipse id="Oval-Copy-4" transform="translate(21.923959, 18.389783) rotate(36.000000) translate(-21.923959, -18.389783) " cx="21.9239586" cy="18.3897826" rx="2.16786496" ry="6.34450468"></ellipse>
                        <ellipse id="Oval-Copy-5" transform="translate(26.504568, 21.731006) rotate(36.000000) translate(-26.504568, -21.731006) " cx="26.5045677" cy="21.7310063" rx="2.16786496" ry="6.34450468"></ellipse>
                        <ellipse id="Oval-Copy-8" transform="translate(28.319274, 22.986220) rotate(36.000000) translate(-28.319274, -22.986220) " cx="28.3192742" cy="22.9862204" rx="1" ry="2.47021333"></ellipse>
                        <ellipse id="Oval-Copy-9" transform="translate(23.363121, 19.289429) rotate(36.000000) translate(-23.363121, -19.289429) " cx="23.363121" cy="19.2894295" rx="1" ry="2.47021333"></ellipse>
                        <ellipse id="Oval-Copy-10" transform="translate(18.826355, 16.151394) rotate(36.000000) translate(-18.826355, -16.151394) " cx="18.8263548" cy="16.151394" rx="1" ry="2.47021333"></ellipse>
                        <path d="M53.844964,36.2515548 L39.2778745,26.6364885 C37.7511757,25.6287848 35.6970929,26.044872 34.682907,27.5672724 C33.6423787,29.1292154 33.9573332,31.2258658 35.410846,32.4131591 L48.7011504,43.2692656 L48.7011504,43.2692656 L53.844964,36.2515548 Z" id="Path-4"></path>
                        <path d="M51.82452,36.4660527 L37.2574305,26.8509865 C35.7307317,25.8432828 33.6766489,26.25937 32.662463,27.7817703 C31.6219347,29.3437134 31.9368892,31.4403637 33.390402,32.6276571 L46.6807063,43.4837635 L46.6807063,43.4837635 L51.82452,36.4660527 Z" id="Path-4-Copy-3"></path>
                    </g>
                    <ellipse id="Oval-Copy-6" cx="61.6270192" cy="69.4743911" rx="19.7104693" ry="19.7887442"></ellipse>
                    <ellipse id="Oval-Copy-7" cx="59.6559723" cy="67.9902353" rx="17.7394224" ry="17.8098698"></ellipse>
                    <ellipse id="Oval-Copy-11" cx="61.6270192" cy="60.9010198" rx="6.34743928" ry="6.37264643"></ellipse>
                    <ellipse id="Oval-Copy-12" cx="60.6414958" cy="59.416864" rx="4.92761733" ry="4.94718605"></ellipse>
                </g>
                <g id="Group-6" transform="translate(62.500000, 88.000000)">
                    <g id="Group-4" transform="translate(29.500000, 0.000000)" fill="#2E93EE">
                        <rect id="Rectangle" x="0" y="0" width="7" height="20"></rect>
                        <rect id="Rectangle-Copy-5" x="0" y="46" width="7" height="20"></rect>
                    </g>
                    <g id="Group-4" transform="translate(33.000000, 33.000000) rotate(-315.000000) translate(-33.000000, -33.000000) translate(29.500000, -0.000000)" fill="#FFCF00">
                        <rect id="Rectangle" x="-1.8189894e-12" y="-9.09494702e-13" width="7" height="13"></rect>
                        <rect id="Rectangle-Copy-5" x="9.09494702e-13" y="53" width="7" height="13"></rect>
                    </g>
                    <g id="Group-4" transform="translate(33.000000, 33.000000) rotate(-270.000000) translate(-33.000000, -33.000000) translate(29.500000, -0.000000)" fill="#2E93EE">
                        <rect id="Rectangle" x="0" y="0" width="7" height="20"></rect>
                        <rect id="Rectangle-Copy-5" x="0" y="46" width="7" height="20"></rect>
                    </g>
                    <g id="Group-4" transform="translate(33.000000, 33.000000) rotate(-225.000000) translate(-33.000000, -33.000000) translate(29.500000, -0.000000)" fill="#FFCF00">
                        <rect id="Rectangle" x="0" y="1.8189894e-12" width="7" height="13"></rect>
                        <rect id="Rectangle-Copy-5" x="6.45741238e-11" y="53" width="7" height="13"></rect>
                    </g>
                </g>
                <circle id="Oval" fill="#1F2044" cx="296.244305" cy="241" r="40"></circle>
                <circle id="Oval" fill="#2E93EE" cx="289.244305" cy="238" r="36"></circle>
                <circle id="Oval" fill="#1F2044" cx="296.244305" cy="223.670206" r="12.8813559"></circle>
                <circle id="Oval" fill="#2E93EE" cx="294.244305" cy="220.670206" r="10"></circle>
                <polygon id="Rectangle-Copy-10" fill="#1F2044" points="42 256 57 241 346 256 361 318 346 333 42 333"></polygon>
                <rect id="Rectangle" stroke="#1F2044" stroke-width="6" fill="#FFFFFF" x="60" y="244" width="298" height="71"></rect>
                <g id="logo.b34a702-copy" transform="translate(94.000000, 256.000000)" fill-rule="nonzero">
                    <path d="M40.9744758,33.7232308 L48.0853224,33.0822462 C48.5129851,35.2179077 49.3874026,36.7898462 50.7085748,37.7999692 C52.029747,38.8091385 53.7976739,39.3146769 56.0123557,39.3146769 C58.3826379,39.3146769 60.1505648,38.8682769 61.3161366,37.9745231 C62.3986577,37.2868 63.0745175,36.1107077 63.1232023,34.8296923 C63.1403852,34.0961846 62.868323,33.3846154 62.3652466,32.8495077 C61.6177915,32.1770462 60.7175997,31.6972615 59.7419942,31.4521231 C58.8876235,31.1802769 56.945004,30.7148 53.9141356,30.0547385 C49.9897578,29.2010462 47.2309517,28.1327385 45.6377173,26.8517231 C43.4230356,25.0661231 42.3156947,22.8913538 42.3156947,20.3293231 C42.3233315,18.6476923 42.8760474,17.0128 43.8888824,15.6707385 C45.0344074,14.1684308 46.5942307,13.0352615 48.3764767,12.4095385 C50.6598899,11.6121231 53.0693109,11.2363077 55.4873234,11.3030769 C60.0341031,11.3030769 63.4525407,12.1958769 65.7455,13.9824308 C67.981183,15.6678769 69.3147651,18.2890462 69.3596315,21.0876308 L62.0740923,21.3785538 C61.7628913,19.7093231 61.1023052,18.5055692 60.092334,17.7682462 C59.0823627,17.0309231 57.5473592,16.6617846 55.488278,16.6617846 C53.3518738,16.6617846 51.7004085,17.05 50.5348368,17.8264308 C49.8064738,18.2461231 49.3616282,19.0244615 49.3692651,19.8648 C49.391221,20.6660308 49.8045646,21.4062154 50.4766059,21.8449846 C51.4092542,22.5441538 53.6439827,23.2624 57.1798366,23.9997231 C59.8785026,24.4919077 62.5170286,25.2721538 65.0476844,26.3290154 C66.6628747,27.0548923 68.0518238,28.2014154 69.0694318,29.6484 C71.0941473,32.8619077 70.9786402,36.9777538 68.7782775,40.0729846 C67.5516112,41.7460308 65.8438243,43.0060615 63.8821126,43.6832923 C61.334274,44.5617846 58.6489724,44.9767077 55.9550794,44.9061231 C51.3701155,44.9061231 47.8533536,43.9551385 45.4057485,42.0522154 C42.9562341,40.1492923 41.4794614,37.3736 40.9744758,33.7232308" id="Path" fill="#1B1B1B"></path>
                    <path d="M72.2730835,19.9792615 L79.2674684,19.9792615 L79.2674684,44.4396923 L72.2730835,44.4396923 L72.2730835,19.9792615 Z M72.2730835,11.2429846 L79.2674684,11.2429846 L79.2674684,17.6490154 L72.2730835,17.6490154 L72.2730835,11.2429846 Z" id="Shape" fill="#1B1B1B"></path>
                    <path d="M95.5873817,19.9792615 L95.5873817,25.2206462 L90.9250948,25.2206462 L90.9250948,35.1206154 C90.8745008,36.2871692 90.912685,37.4546769 91.0415565,38.6155077 C91.1427446,38.9588923 91.3718496,39.2507692 91.6830506,39.4310462 C92.0286173,39.6599692 92.4333695,39.7820615 92.8486223,39.7801538 C93.8079995,39.7076615 94.7501938,39.4911385 95.6456126,39.1391692 L96.2288757,44.1478154 C94.4819501,44.8212308 92.6223811,45.1569846 90.7504023,45.1379077 C89.5972404,45.1541231 88.4507608,44.9566769 87.3701488,44.5551077 C86.506232,44.2632308 85.7396849,43.7395692 85.1554671,43.0404 C84.632344,42.2954462 84.2925049,41.4369846 84.1645879,40.5365538 C83.9688941,39.0304308 83.8906165,37.5119077 83.9316645,35.9933846 L83.9316645,25.2206462 L80.4349494,25.2206462 L80.4349494,19.9792615 L83.9316645,19.9792615 L83.9316645,15.1451692 L90.9260494,11.3603077 L90.9260494,19.9792615 L95.5873817,19.9792615 Z" id="Path" fill="#1B1B1B"></path>
                    <path d="M112.95545,30.5202154 C112.916312,28.6955077 112.391279,27.2981231 111.381308,26.3271077 C109.255405,24.3545538 105.958202,24.3793538 103.862845,26.3852923 C102.807053,27.4946154 102.258156,28.9921538 102.346934,30.5202154 L112.95545,30.5202154 Z M112.606065,36.5189538 L119.658681,37.5672308 C118.850131,39.7629846 117.332311,41.6277538 115.345779,42.8668 C113.402205,44.0705538 110.9546,44.6724308 108.002009,44.6724308 C103.339722,44.6724308 99.9002835,43.3132 97.6856017,40.5956923 C95.47092,37.8781846 94.5764559,35.1215692 95.0041186,32.3258462 C95.0041186,28.3273231 96.1696903,25.2015692 98.5008337,22.9495385 C100.854888,20.6774769 104.030856,19.4584615 107.302284,19.5719692 C111.265801,19.5719692 114.413131,20.7556923 116.744274,23.1240923 C119.076373,25.4924923 120.182759,29.1228308 120.066297,34.0141538 L102.289658,34.0141538 C102.228563,35.6576308 102.838555,37.2553231 103.980262,38.44 C105.074238,39.4892308 106.543374,40.0567692 108.06024,40.0119385 C109.055892,40.0462769 110.036271,39.7601231 110.85723,39.1964 C111.688691,38.5277538 112.2815,37.6082462 112.547834,36.5761846" id="Shape" fill="#1B1B1B"></path>
                    <polygon id="Path" fill="#F3000B" points="122.980704 44.4387385 122.980704 11.2439385 130.557397 11.2439385 130.557397 38.6155077 149.208454 38.6155077 149.208454 44.4387385"></polygon>
                    <path d="M156.726917,32.3258462 C156.726917,34.7333538 157.348364,36.5580615 158.591258,37.7999692 C161.178236,40.3457846 165.330764,40.3457846 167.916787,37.7999692 C169.160636,36.5189538 169.782083,34.6742154 169.782083,32.2676615 C169.782083,29.8601538 169.160636,28.0554769 167.916787,26.8507692 C165.330764,24.3049538 161.178236,24.3049538 158.591258,26.8507692 C157.349318,28.1327385 156.726917,29.9574462 156.726917,32.3258462 M149.324916,31.9176 C149.346871,29.7590462 149.951136,27.6462769 151.07375,25.8024923 C152.228822,23.8232615 153.955701,22.2408308 156.027192,21.2602769 C158.243783,20.1938769 160.678023,19.6549538 163.138038,19.6873846 C167.178878,19.6873846 170.501855,20.8720615 173.105061,23.2404615 C175.660536,25.5125231 177.088624,28.7918462 177.009392,32.2094769 C177.106761,35.6643077 175.678674,38.9865538 173.105061,41.2948615 C170.501855,43.7023692 167.218017,44.9061231 163.2545,44.9061231 C160.842215,44.9042154 158.457614,44.3872308 156.260115,43.3914154 C154.155213,42.4995692 152.382513,40.9724615 151.189258,39.0237538 C149.968319,36.8804615 149.3631,34.4414769 149.440423,31.9767385" id="Shape" fill="#F3000B"></path>
                    <path d="M202.714019,27.3753846 L195.719634,28.4818462 C195.577398,27.3648923 195.014181,26.3452308 194.146446,25.6279385 C193.193751,24.9602462 192.044408,24.6321231 190.882655,24.6960308 C189.316149,24.6283077 187.79451,25.2196923 186.686215,26.3271077 C185.637105,27.4135385 185.113027,29.2392 185.113027,31.8012308 C185.113027,34.3632615 185.657151,36.4016308 186.744445,37.9153846 C187.855605,39.1029231 189.432611,39.742 191.057347,39.6628308 C192.253466,39.7114769 193.428584,39.3404308 194.37937,38.6145538 C195.234695,37.9153846 195.83705,36.7316615 196.186435,35.0614769 L203.064359,36.1679385 C202.325495,39.0409231 200.946092,41.2147385 198.926149,42.6903385 C196.906207,44.1649846 194.166493,44.9032615 190.707962,44.9032615 C186.783584,44.9032615 183.655346,43.7968 181.324203,41.5838769 C178.993059,39.3709538 177.827488,36.3033846 177.827488,32.3821231 C177.827488,28.4217538 178.993059,25.3351077 181.324203,23.1221846 C183.655346,20.9092615 186.822723,19.8028 190.824424,19.8028 C194.088215,19.8028 196.672329,20.4237538 198.576764,21.6666154 C200.585252,23.0496923 202.047705,25.0880615 202.714974,27.4316615" id="Path" fill="#F3000B"></path>
                    <polygon id="Path" fill="#F3000B" points="204.579316 44.4387385 204.579316 11.2439385 211.572746 11.2439385 211.572746 28.5982154 219.732702 19.9792615 228.359461 19.9792615 219.325086 28.9482769 229 44.4387385 221.481537 44.4387385 214.836538 33.4904923 211.572746 36.6353231 211.572746 44.4387385"></polygon>
                    <path d="M31.4742549,40.362 L6.41112176,40.362 L6.41112176,17.6499692 L31.4733003,17.6499692 L31.4733003,40.362 L31.4742549,40.362 Z M18.7092876,6.00159708 C22.1544541,5.99873846 25.2511901,8.10006154 26.5198591,11.3011692 L11.190825,11.3011692 C12.3382592,8.13535385 15.3395348,6.02067692 18.7092876,6.00159708 M32.5233649,11.2439385 C31.1706907,4.69673846 25.4001084,0 18.7092876,0 C12.0194214,0 6.24979366,4.69673846 4.89616491,11.2439385 L0,11.2439385 L0,46.1871385 L37.8853766,46.1871385 L37.8853766,11.2439385 L32.5233649,11.2439385 Z" id="Shape" fill="#1B1B1B"></path>
                    <polygon id="Path" fill="#F3000B" points="29.0848806 15.5534154 18.3599025 29.5301231 12.7649673 24.8715385 8.80145066 29.8210462 18.8267039 38.0908923 33.8636292 18.8146154"></polygon>
                </g>
            </g>
        </g>
    </g>
</svg>